<svg xmlns="http://www.w3.org/2000/svg" viewBox="0 0 512 512">
  <defs>
    <radialGradient id="backdrop" cx="48%" cy="44%" r="72%">
      <stop offset="0%" stop-color="#2C72F2"/>
      <stop offset="42%" stop-color="#193A77"/>
      <stop offset="100%" stop-color="#050608"/>
    </radialGradient>
    <radialGradient id="catFill" cx="49%" cy="44%" r="70%">
      <stop offset="0%" stop-color="#071B4B"/>
      <stop offset="56%" stop-color="#020A21"/>
      <stop offset="100%" stop-color="#00040F"/>
    </radialGradient>
    <linearGradient id="catStroke" x1="120" y1="86" x2="420" y2="424" gradientUnits="userSpaceOnUse">
      <stop offset="0%" stop-color="#49AAFF"/>
      <stop offset="47%" stop-color="#166CF6"/>
      <stop offset="100%" stop-color="#2FA7FF"/>
    </linearGradient>
    <linearGradient id="letterK" x1="254" y1="183" x2="354" y2="302" gradientUnits="userSpaceOnUse">
      <stop offset="0%" stop-color="#47A8FF"/>
      <stop offset="100%" stop-color="#106BFF"/>
    </linearGradient>
    <filter id="blueAura" x="-34%" y="-34%" width="168%" height="168%">
      <feGaussianBlur stdDeviation="22" result="blur"/>
      <feColorMatrix in="blur" type="matrix" values="0 0 0 0 0.10 0 0 0 0 0.40 0 0 0 0 1 0 0 0 0.92 0"/>
      <feMerge>
        <feMergeNode/>
        <feMergeNode in="SourceGraphic"/>
      </feMerge>
    </filter>
    <filter id="lineGlow" x="-20%" y="-20%" width="140%" height="140%">
      <feGaussianBlur stdDeviation="2.2" result="blur"/>
      <feColorMatrix in="blur" type="matrix" values="0 0 0 0 0.10 0 0 0 0 0.45 0 0 0 0 1 0 0 0 0.95 0"/>
      <feMerge>
        <feMergeNode/>
        <feMergeNode in="SourceGraphic"/>
      </feMerge>
    </filter>
    <filter id="letterShadow" x="-8%" y="-8%" width="116%" height="116%">
      <feDropShadow dx="0" dy="5" stdDeviation="4" flood-color="#000510" flood-opacity="0.7"/>
    </filter>
  </defs>

  <rect width="512" height="512" fill="url(#backdrop)"/>
  <path
    d="M135 228
       C132 203 138 176 150 153
       C139 104 147 76 160 75
       C190 77 225 99 247 123
       C270 119 294 119 317 123
       C339 99 374 77 404 75
       C417 76 425 104 414 153
       C429 180 433 214 424 244
       C439 235 461 236 474 249
       C492 268 486 306 461 352
       C423 421 337 447 220 433
       C167 427 132 401 127 359
       C124 331 131 307 142 284
       C125 271 116 251 115 229
       C121 229 128 228 135 228Z"
    fill="url(#catFill)"
    filter="url(#blueAura)"
  />

  <g fill="none" stroke="url(#catStroke)" stroke-linecap="round" stroke-linejoin="round" filter="url(#lineGlow)">
    <path
      d="M137 229
         C133 203 138 176 151 153
         C140 105 148 77 161 76
         C190 78 225 100 247 124
         C270 120 294 120 317 124
         C339 100 374 78 403 76
         C416 77 424 105 413 153
         C430 185 431 224 419 254"
      stroke-width="8"
    />
    <path
      d="M142 283
         C121 321 127 385 177 414
         C229 444 349 438 397 381
         C427 346 422 299 448 280
         C473 262 496 281 491 313
         C482 377 414 437 336 450"
      stroke-width="8"
    />
    <path d="M62 221 C92 217 122 218 146 226" stroke-width="6"/>
    <path d="M68 245 C100 238 125 238 147 243" stroke-width="6"/>
    <path d="M419 226 C443 218 473 217 503 221" stroke-width="6"/>
    <path d="M418 243 C442 238 468 238 497 246" stroke-width="6"/>
  </g>

  <g filter="url(#letterShadow)">
    <path
      d="M159 302L200 191H236L276 302H243L236 280H198L191 302H159ZM207 254H228L218 222L207 254Z"
      fill="#FFFFFF"
    />
    <path
      d="M267 302V191H296V236L331 191H366L324 245L371 302H333L303 264L296 271V302H267Z"
      fill="url(#letterK)"
    />
  </g>
</svg>
